<?xml version="1.0" standalone="no"?>
<!DOCTYPE svg PUBLIC "-//W3C//DTD SVG 20010904//EN"
 "http://www.w3.org/TR/2001/REC-SVG-20010904/DTD/svg10.dtd">
<svg version="1.0" xmlns="http://www.w3.org/2000/svg"
 width="512.000000pt" height="512.000000pt" viewBox="0 0 512.000000 512.000000"
 preserveAspectRatio="xMidYMid meet">
<metadata>
Created by potrace 1.11, written by Peter Selinger 2001-2013
</metadata>
<g transform="translate(0.000000,512.000000) scale(0.100000,-0.100000)"
fill="#000000" stroke="none">
<path d="M2320 4768 c-124 -72 -243 -141 -265 -153 -22 -13 -96 -56 -165 -95
-69 -40 -143 -83 -165 -95 -22 -13 -117 -67 -210 -122 -94 -54 -354 -204 -578
-333 l-407 -235 0 -225 c-1 -249 -1 -1751 0 -1980 l0 -145 33 -19 c17 -10 48
-27 67 -38 19 -11 67 -39 105 -61 39 -23 83 -48 98 -57 16 -8 124 -70 241
-137 117 -68 215 -123 218 -123 4 0 116 63 249 140 134 77 246 140 249 140 4
0 6 -127 6 -282 -1 -313 -5 -296 68 -333 17 -9 45 -25 61 -35 17 -11 37 -23
45 -27 8 -4 122 -69 253 -145 132 -76 241 -138 244 -138 2 0 24 -13 47 -29
l43 -30 269 155 c148 85 276 159 284 164 20 12 488 283 680 393 85 49 214 123
285 165 72 41 204 118 295 170 91 53 177 103 192 111 24 14 28 22 29 66 2 207
1 2297 -2 2299 -5 4 -351 206 -409 238 -25 13 -96 55 -159 91 -62 37 -116 67
-120 67 -3 0 -17 9 -31 20 -14 11 -31 20 -38 20 -13 0 -204 -108 -478 -271
l-30 -18 1 282 c0 155 -1 287 -3 294 -3 11 -96 68 -197 123 -16 9 -148 85
-292 168 -144 84 -268 152 -275 152 -7 -1 -114 -60 -238 -132z m243 -762 c3
-8 3 -16 0 -19 -3 -3 -6 -128 -6 -277 l-2 -272 -45 -25 c-25 -14 -72 -41 -105
-60 -71 -42 -114 -67 -175 -101 -25 -14 -74 -42 -109 -64 -34 -21 -65 -38 -67
-38 -2 0 -56 -31 -120 -70 -65 -38 -121 -70 -125 -70 -4 0 -9 -6 -11 -12 -2
-7 -3 -205 -3 -440 1 -235 -1 -432 -4 -437 -3 -5 -64 -42 -136 -84 -71 -41
-170 -98 -220 -127 -49 -28 -102 -58 -117 -66 l-26 -14 1 733 2 732 185 108
c102 59 192 110 200 114 8 4 73 41 146 84 72 42 151 88 175 101 24 14 132 76
239 138 107 62 215 124 240 138 25 13 49 28 55 33 13 13 22 11 28 -5z m1263
-2172 c-3 -9 -395 -241 -466 -277 -8 -4 -37 -21 -65 -37 -27 -17 -61 -36 -75
-43 -14 -6 -27 -14 -30 -17 -3 -3 -45 -29 -95 -57 -49 -28 -173 -99 -275 -158
-102 -59 -202 -115 -222 -126 l-37 -19 0 290 0 289 77 44 c42 25 93 54 112 64
19 11 132 77 251 146 119 69 234 134 257 146 22 11 47 29 54 40 10 14 13 109
13 450 l-1 431 104 61 c56 33 117 68 135 78 18 10 59 34 92 54 33 19 85 49
115 65 l55 31 3 -722 c1 -397 0 -727 -2 -733z"/>
</g>
</svg>
